<svg xmlns="http://www.w3.org/2000/svg" width="256" height="256"><path fill-opacity=".016" d="M0 128.004v128.004l128.25-.254 128.25-.254.254-127.75L257.008 0H0v128.004m.485.496c0 70.4.119 99.053.265 63.672.146-35.38.146-92.98 0-128C.604 29.153.485 58.1.485 128.5" fill="#1976D2" fill-rule="evenodd"/><path fill-opacity=".063" d="M190.5 29.219c-19.288 4.657-25.735 7.319-38.763 16.007-8.513 5.676-14.72 11.263-22.125 19.914-1.98 2.313-3.873 3.933-4.206 3.599-.333-.333-.227-1.198.236-1.922 1.864-2.916 3.327-8.563 3.321-12.817-.009-5.271-1.783-7.902-7.435-11.022-5.918-3.268-21.569-3.351-30.237-.161-6.604 2.43-18.206 8.561-21.069 11.134-.948.852-3.302 2.727-5.232 4.166C59.115 62.5 45.625 76.092 39.797 83.5c-11.229 14.274-23.874 35.941-29.91 51.25a198.51 198.51 0 01-1.852 4.5c-3.12 7.273-6.19 22.873-6.291 31.97-.099 8.906.138 10.195 2.824 15.389 3.538 6.841 10.388 14.724 14.634 16.842 5.549 2.768 21.177 1.891 28.034-1.574.955-.482 2.258-.877 2.895-.877 1.361 0 16.137-6.971 16.869-7.958.275-.371 2.525-2.056 5-3.746 14.121-9.641 31.715-30.207 45.791-53.528 5.415-8.971 5.8-10.381 3.219-11.762-1.147-.614-2.951-.842-4.008-.507-1.057.336-6.553 6.75-12.212 14.254C87.018 161.318 72.7 174.511 56 182.709c-14.938 7.334-20.64 8.148-25.923 3.702C27.139 183.939 27 183.48 27 176.232c0-4.174.42-8.972.932-10.661.513-1.689 1.47-5.096 2.128-7.571 3.442-12.964 13.759-35.213 19.19-41.388.963-1.094 1.75-2.542 1.75-3.217 0-.676.337-1.378.75-1.562.413-.183 2.1-2.354 3.75-4.824 6.318-9.46 19.569-25.928 24.638-30.622 3.533-3.272 17.461-13.802 22.054-16.673 3.227-2.019 10.621-4.679 13.058-4.699 4.399-.037.586 14.16-6.153 22.908l-1.867 2.423-1.641-3.173C104.255 74.592 103.34 74 100.683 74 94.479 74 85 86.761 85 95.111c0 2.838.739 4.475 3.077 6.812 3.023 3.023 7.202 4.053 8.423 2.077.34-.55 1.379-1.002 2.309-1.003 1.702-.004 11.247-9.471 16.539-16.404 3.005-3.938 4.741-4.142 2.898-.341-1.539 3.174-2.357 12.659-1.58 18.327.843 6.153 7.492 13.421 12.277 13.421 9.772 0 21.644-13.726 22.059-25.504.274-7.784.126-8.499-1.752-8.45-1.185.032-2.88 2.485-5.25 7.6-4.936 10.652-12.23 16.724-15.8 13.154-1.464-1.464-1.644-14.8-.2-14.8.55 0 1-.9 1-2s.34-2 .756-2 1.395-1.463 2.176-3.25c4.507-10.312 17.016-22.083 30.568-28.767 1.65-.814 3.225-1.706 3.5-1.983.547-.55 5.331-2.82 8.5-4.033 20.159-7.713 37.366-7.929 48-.6 3.786 2.609 4.505 3.338 7.533 7.633 2.195 3.115 2.456 4.469 2.369 12.298-.058 5.175-.573 9.273-1.25 9.95-.634.634-1.152 1.742-1.152 2.463 0 3.513-8.399 18.323-14.225 25.083-5.45 6.323-17.059 17.243-21.775 20.483-2.475 1.7-4.725 3.346-5 3.657-1.75 1.981-18.189 10.066-20.466 10.066-.779 0-1.694.45-2.034 1-.652 1.054-4.5 1.414-4.5.42 0-.874 15.564-32.257 18.558-37.42 3.59-6.192 19.403-29.818 21.078-31.493.75-.75 1.374-1.734 1.386-2.186.012-.451.902-1.946 1.978-3.321 1.076-1.375 1.966-3.873 1.978-5.551.023-3.228-1.965-8.428-3.228-8.441-.412-.004-.75-.605-.75-1.334 0-2.158-4.43-5.674-7.149-5.674-4.318 0-11.618 8.803-25.707 31-2.967 4.675-6.537 10.525-7.933 13a1018.39 1018.39 0 01-4.856 8.5c-1.274 2.2-4.157 7.825-6.406 12.5-2.249 4.675-4.958 10.23-6.019 12.345-1.062 2.114-1.93 4.421-1.93 5.127 0 .706-.622 1.799-1.382 2.43-1.115.926-1.839.179-3.75-3.868-3.408-7.218-8.275-8.093-10.61-1.908-1.462 3.875-.248 9.558 4.024 18.826 2.493 5.41 2.813 6.944 1.981 9.5-.546 1.676-1.55 5.073-2.232 7.548-.682 2.475-1.642 5.534-2.135 6.797-.493 1.263-.896 3.311-.896 4.55 0 1.239-.484 2.737-1.076 3.329-1.712 1.712-1.657 14.567.076 17.914 2.852 5.506 6.13 8.41 9.496 8.41 3.854 0 5.219-2.338 9.05-15.5 3.465-11.904 3.047-11.587 7.144-5.425 7.796 11.728 27.829 33.883 36.664 40.548 3.38 2.551 8.096 5.479 10.479 6.507 9.267 3.999 35.64 1.291 37.618-3.863.653-1.703-2.983-6.267-4.993-6.267-2.428 0-18.964-9.136-28.256-15.611-3.464-2.414-6.689-4.389-7.167-4.389-.477 0-1.018-.353-1.202-.784-.183-.431-3.033-2.86-6.333-5.398-9.467-7.281-25.059-24.001-30.721-32.944l-1.663-2.626 3.692-.626c12.988-2.204 16.302-2.888 27.142-5.606 6.311-1.583 20.407-8.552 28.05-13.869 7.728-5.376 18.632-15.676 23.968-22.64 6.038-7.881 9.662-15.335 13.891-28.578 1.516-4.745 1.432-23.517-.124-27.931-3.256-9.236-10.625-17.937-18.44-21.775-3.58-1.759-6.065-2.562-15.911-5.144-4.951-1.298-23.298-1.209-28.884.14" fill="#1976D2" fill-rule="evenodd"/><path fill-opacity=".256" d="M197 29.098c-1.375.386-4.386.747-6.691.802-2.305.055-4.469.55-4.809 1.1-.34.55-1.915 1-3.5 1s-3.16.45-3.5 1c-.34.55-1.407 1-2.371 1-1.755 0-5.997 1.818-15.928 6.827-10.281 5.186-23.751 16.583-31.688 26.812-3.602 4.641-4.465 2.931-2.074-4.111.858-2.529 1.561-6.747 1.561-9.373 0-3.998-.508-5.295-3.119-7.965-1.715-1.755-3.938-3.19-4.941-3.19-1.002 0-2.1-.45-2.44-1-.834-1.349-16.748-1.274-21.884.104-4.817 1.292-16.965 6.926-17.449 8.093-.184.441-.724.803-1.2.803-1.389 0-8.87 5.397-16.919 12.205-10.296 8.709-19.779 19.824-30.18 35.371C23.009 108.831 12 129.411 12 131.981c0 .575-.397 1.828-.883 2.783C6.095 144.636 2 161.635 2 172.612c0 7.977 3.872 16.805 10.704 24.404 7.851 8.732 17.362 9.881 34.796 4.203 4.4-1.434 8.15-2.969 8.333-3.413.184-.443 1.196-.806 2.25-.806 1.055 0 1.917-.45 1.917-1s.484-1 1.075-1 4.191-2.016 8-4.48c8.296-5.367 25.61-22.509 32.431-32.111 2.7-3.8 5.49-7.504 6.201-8.23.711-.727 1.293-1.708 1.293-2.179 0-.471.592-1.452 1.315-2.179.724-.726 2.636-3.498 4.25-6.159a678.72 678.72 0 014.612-7.5c1.911-3.033 2.305-6.746.814-7.668-1.973-1.219-4.638.583-8.515 5.759-15.707 20.965-23.322 29.763-32.577 37.633-12.75 10.843-18.576 14.493-30.899 19.36-1.375.543-3.281 1.385-4.236 1.871-.955.486-3.665.883-6.023.883-3.309 0-5.135-.7-8.013-3.073-3.57-2.942-3.728-3.334-3.728-9.25 0-3.398.715-9.328 1.589-13.177.873-3.85 1.825-8.243 2.115-9.762.29-1.519.925-3.009 1.411-3.309.487-.301.885-1.182.885-1.958 0-3.703 13.851-31.238 16.25-32.304.413-.184.75-.748.75-1.255 0-.507 2.102-3.957 4.671-7.667 4.73-6.83 5.661-8.09 12.829-17.375 12.235-15.849 32.031-31.862 44.297-35.831 3.982-1.288 4.441-1.245 6.277.591 1.975 1.974 1.975 2.001-.021 8.425C115.179 70.086 108.844 81 107.218 81c-.402 0-1.327-1.35-2.058-3-2.927-6.613-11.915-1.903-17.056 8.938-2.947 6.216-2.766 11.127.532 14.426 3.132 3.132 5.18 3.281 10.161.74 3.348-1.709 6.258-4.587 17.016-16.833l3.313-3.771-.6 4c-1.162 7.747-1.737 18.522-1.121 20.979 1.025 4.083 6.375 9.389 10.188 10.104 10.775 2.022 24.225-13.904 23.23-27.505-.335-4.58-2.378-6.622-3.413-3.411-2.042 6.337-8.245 16.845-10.91 18.482-6.689 4.11-10.624 1.633-10.751-6.766-.088-5.869 6.807-19.642 13.502-26.967 6.189-6.772 17.788-14.933 28.249-19.875 4.4-2.079 8.781-4.176 9.736-4.66.955-.485 2.424-.881 3.264-.881.84 0 2.309-.397 3.264-.882 6.437-3.269 22.824-4.103 30.196-1.536 8.492 2.957 12.746 6.04 17.133 12.418 2.03 2.952 2.401 4.675 2.368 11-.102 19.896-17.645 45.46-43.137 62.858-7.411 5.058-16.507 9.706-22.521 11.508-4.886 1.463-5.803 1.282-5.803-1.148 0-3.046 18.005-37.256 25.573-48.59 4.36-6.529 8.377-12.604 8.927-13.5.55-.895 1.263-1.853 1.584-2.128.321-.275 2.233-2.969 4.25-5.987 3.856-5.771 4.452-9.095 2.46-13.716C203.16 51.507 198.083 45 196.76 45c-3.173 0-10.779 8.295-19.26 21.004-1.65 2.473-3.338 4.646-3.75 4.829-.412.184-.75.732-.75 1.219 0 .487-2.025 4.016-4.5 7.842-2.475 3.826-4.5 7.169-4.5 7.429 0 .26-1.717 3.331-3.816 6.825-2.098 3.494-6.419 11.752-9.602 18.352-3.182 6.6-6.528 13.533-7.434 15.407-.907 1.874-2.059 3.377-2.562 3.341-.502-.037-2.11-2.246-3.571-4.908-3.302-6.013-6.192-6.833-8.48-2.407-1.421 2.748-1.431 3.704-.095 9.466.818 3.526 2.403 8.042 3.523 10.036 2.436 4.337 2.559 8.496.429 14.565-.869 2.475-1.719 5.175-1.889 6-.17.825-1.281 5.504-2.469 10.397-2.46 10.132-2.118 15.147 1.404 20.603 2.489 3.856 6.655 6.562 8.821 5.731 1.408-.54 3.455-5.465 5.709-13.731.675-2.475 1.633-5.281 2.129-6.236.497-.955.903-2.643.903-3.75 0-3.941 3.453-2.041 7.738 4.257 6.876 10.107 11.485 15.614 22.424 26.794 17.78 18.17 22.654 20.493 41.305 19.688 11.451-.495 15.789-1.523 17.713-4.199 1.082-1.505-1.06-4.558-3.976-5.666-7.807-2.969-24.634-12.767-37.127-21.62-12.962-9.185-41.263-39.892-38.325-41.583.659-.379 2.931-.787 13.248-2.381a313.44 313.44 0 017-.947c2.475-.309 4.927-.966 5.45-1.459.522-.494 1.958-.898 3.191-.898 1.233 0 2.519-.45 2.859-1 .34-.55 1.255-1 2.034-1 2.593 0 14.86-6.134 23.413-11.707 18.229-11.879 32.893-30.15 37.957-47.293.731-2.475 1.661-5.625 2.065-7 1.377-4.677 1.113-18.357-.452-23.416-1.907-6.161-6.633-13.601-11.175-17.588-3.876-3.404-12.761-7.996-15.47-7.996-.965 0-1.996-.392-2.292-.871-1.066-1.725-22.94-3.336-27.58-2.031" fill="#1976D2" fill-rule="evenodd"/><path fill-opacity=".102" d="M195.5 29.966c-1.1.491-3.318.925-4.929.964-7.348.176-27.546 8.413-38.571 15.729-8.134 5.397-21 17.031-21 18.989 0 .538-1.35 2.271-3 3.852s-3 3.465-3 4.187c0 .722-.34 1.313-.756 1.313-1.001 0-3.346 5.387-4.546 10.444-.529 2.231-1.16 8.021-1.403 12.867-.414 8.284-.285 9.013 2.156 12.214 1.428 1.872 4.065 4.1 5.859 4.952 3.08 1.461 3.542 1.413 8.227-.866 6.884-3.348 9.34-6.181 14.606-16.847C150.336 95.346 150.22 85 149 85c-.55 0-1 .612-1 1.36 0 2.549-6.467 13.907-9.838 17.278-2.448 2.448-4.253 3.362-6.64 3.362-4.75 0-6.042-2.167-5.906-9.904.159-9.021 5.15-18.773 14.809-28.936 4.367-4.594 7.593-6.988 20.098-14.913 5.783-3.665 18.9-9.056 27.439-11.278 2.455-.638 9.069-1.161 14.7-1.161 8.956-.001 10.962.331 16.037 2.654 6.166 2.821 10.929 7.185 13.168 12.061a164.462 164.462 0 002.25 4.713c1.773 3.485.688 12.206-2.24 18-.482.955-.877 2.424-.877 3.264 0 .84-.434 2.309-.965 3.264-.531.955-1.858 3.8-2.95 6.322-1.092 2.523-2.683 5.166-3.535 5.873-.853.707-1.55 1.666-1.55 2.13 0 2.369-23.646 26.168-28.438 28.622-1.684.862-3.287 1.865-3.562 2.229-1.025 1.353-11.038 7.031-13.483 7.645-1.395.35-2.783 1.037-3.085 1.526-.303.489-1.622.889-2.932.889-1.31 0-2.66.45-3 1-.34.55-1.941 1-3.559 1-3.859 0-3.846-2.076.059-9.5 1.65-3.137 3-6.332 3-7.102 0-.769.45-1.398 1-1.398s.896-.338.769-.75c-.306-.992 7.438-16.655 8.447-17.083.431-.184.784-.793.784-1.355 0-.562 1.35-3.022 3-5.467s3-4.61 3-4.811c0-.202 2.363-3.818 5.25-8.037 2.887-4.219 5.74-8.528 6.339-9.577.599-1.048 1.836-2.732 2.75-3.742.913-1.009 1.661-2.263 1.661-2.786 0-.523.9-1.599 2-2.392 1.1-.793 2-2.205 2-3.137 0-.933.548-1.879 1.219-2.103 1.45-.483-.721-8.045-3.204-11.16-2.762-3.464-5.004-5.6-5.88-5.6-1.878 0-6.397 4.499-11.871 11.82-3.158 4.224-6.085 7.83-6.503 8.013-.419.184-.762.859-.764 1.5-.002.642-1.83 3.867-4.064 7.167-2.233 3.3-4.488 6.9-5.011 8-.524 1.1-1.821 3.35-2.883 5-3.212 4.988-8.039 13.802-8.039 14.678 0 .452-.344.822-.764.822-.623 0-4.364 7.174-4.694 9-.05.275-1.263 2.975-2.697 6-1.433 3.025-3.327 7.126-4.207 9.112-3.191 7.201-4.539 7.075-8.503-.794-2.579-5.12-3.326-5.63-5.707-3.889-1.51 1.104-1.82 2.477-1.622 7.193.134 3.205.682 6.266 1.219 6.803.536.536.975 1.785.975 2.775s.45 1.8 1 1.8 1 .873 1 1.941.45 2.219 1 2.559c1.591.983 1.166 6.694-.975 13.095-1.087 3.248-1.987 6.891-2 8.096-.014 1.205-.475 2.469-1.025 2.809-.55.34-1 1.915-1 3.5s-.45 3.16-1 3.5c-1.431.885-1.237 13.106.25 15.744 1.792 3.178 6.976 7.721 8.831 7.74 2.219.022 3.776-3.511 7.482-16.984 2.678-9.736 4.626-11.331 7.633-6.25.895 1.513 2.455 3.769 3.466 5.015 1.011 1.245 3.638 4.599 5.838 7.453 5.815 7.544 27.409 29.623 31.5 32.208 5.412 3.419 34.995 5.9 40.492 3.396 1.422-.648 2.456-1.819 2.297-2.602-.299-1.474-6.56-5.378-10.767-6.713-2.457-.78-11.425-6.03-20.691-12.113-2.844-1.867-5.452-3.394-5.796-3.394-.344 0-1.72-1.012-3.056-2.25-1.337-1.237-5.239-4.5-8.671-7.25C174.115 180.33 156 159.823 156 155.625c0-1.774 3.213-2.581 20.5-5.154 2.2-.327 4.9-.955 6-1.394 1.1-.44 3.8-1.36 6-2.046 9.963-3.102 20.199-8.539 31.002-16.464 5.838-4.284 17.498-15.805 17.498-17.29 0-.702.338-1.28.75-1.284.412-.004 1.871-1.691 3.241-3.75s2.72-3.968 3-4.243c.943-.926 5.899-12.465 7.087-16.5.648-2.2 1.57-5.034 2.05-6.297 1.157-3.047 1.121-20.759-.046-22.967-.505-.955-1.885-3.932-3.066-6.615-3.67-8.338-11.966-15.276-22.516-18.83-8.406-2.832-28.094-4.57-32-2.825M95.5 43c-.34.55-1.407 1-2.372 1-.964 0-4.086 1.125-6.936 2.5-2.85 1.375-5.597 2.5-6.104 2.5-.507 0-1.071.348-1.255.773-.183.425-2.475 2.177-5.093 3.893-6.714 4.401-11.846 8.746-20.086 17.005C43.06 81.289 33 93.622 33 95.991c0 .555-.374 1.009-.831 1.009-.457 0-1.469 1.237-2.248 2.75-.78 1.513-1.654 2.975-1.943 3.25-1.093 1.042-3.999 5.996-3.744 6.384.146.224-.426 1.241-1.271 2.261-4.751 5.735-14.943 30.606-18.174 44.347C2.25 166.792 3.053 186 6.043 186c.398 0 1.008.788 1.356 1.75 2.043 5.651 7.488 11.637 13.039 14.336 4.509 2.192 13.889 2.563 19.491.772 13.229-4.23 29.971-12.316 30.904-14.926.184-.513.865-.932 1.515-.932C73.637 187 98 162.962 98 161.69c0-.429 1.031-1.812 2.29-3.071 1.26-1.26 3.833-4.727 5.718-7.705 1.884-2.978 3.666-5.639 3.959-5.914 1.099-1.031 5.033-6.944 5.033-7.564 0-.355 1.35-2.646 3-5.091 3.414-5.059 3.64-6.162 1.434-7.009-1.572-.603-8.434 5.087-8.434 6.993 0 .515-.809 1.664-1.797 2.554-.989.889-2.887 3.192-4.218 5.117-1.33 1.925-2.996 4.095-3.702 4.821-.706.727-1.283 1.672-1.283 2.099 0 .427-5.062 5.947-11.25 12.267C77.823 170.346 67.52 179 65.159 179c-.637 0-1.159.342-1.159.761C64 181.73 42.213 191 37.585 191c-3.697 0-9.397-2.785-10.743-5.248-1.466-2.685-1.357-18.922.147-21.731.556-1.039 1.011-2.76 1.011-3.825 0-2.257 3.211-12.613 5.575-17.98 3.403-7.727 8.97-18.709 10.109-19.944.652-.706 1.47-2.181 1.818-3.278.348-1.097 1.052-1.994 1.565-1.994.513 0 .935-.562.937-1.25.003-.687 1.803-3.622 4-6.52 2.198-2.899 3.996-5.633 3.996-6.076 0-.443 1.125-1.862 2.5-3.154 1.375-1.292 2.5-2.908 2.5-3.591 0-.683.345-1.392.767-1.576.422-.183 2.557-2.583 4.745-5.333C73.982 80.111 92.254 63 94.81 63c.52 0 1.563-.746 2.318-1.658 2.169-2.621 13.021-7.34 16.881-7.341 4.227-.001 6.445 2.699 5.11 6.221-.475 1.253-1.439 4.078-2.142 6.278-1.636 5.118-8.101 15.424-9.701 15.467-.674.018-1.894-1.261-2.712-2.843-2.402-4.644-5.746-4.555-10.346.276C89.385 84.476 87 89.575 87 94.829c0 3.319.548 4.455 3.119 6.467 2.733 2.139 3.495 2.303 6.169 1.322 3.66-1.342 13.254-9.868 15.205-13.514.767-1.432 2.77-4.042 4.451-5.8 1.681-1.757 3.056-3.67 3.056-4.25 0-.58.344-1.054.764-1.054.932 0 4.236-7.426 4.236-9.52 0-.829.395-2.289.877-3.244 1.477-2.924 3.123-8.757 3.123-11.071 0-4.137-4.792-10.065-8.191-10.132-.93-.018-1.969-.483-2.309-1.033-.348-.563-5.157-1-11-1s-10.652.437-11 1" fill="#1976D2" fill-rule="evenodd"/></svg>