<svg xmlns="http://www.w3.org/2000/svg" width="256" height="256"><path fill-opacity=".016" d="M0 128.004v128.004l128.25-.254 128.25-.254.254-127.75L257.008 0H0v128.004m.485.496c0 70.4.119 99.053.265 63.672.146-35.38.146-92.98 0-128C.604 29.153.485 58.1.485 128.5" fill="#1976D2" fill-rule="evenodd"/><path fill-opacity=".067" d="M109.863 1.005C55.196 9.681 12.577 50.531 1.887 104.5c-1.84 9.285-1.84 37.715 0 47 9.266 46.779 43.018 84.695 88.061 98.924 23.506 7.425 52.598 7.425 76.104 0 40.056-12.654 71.721-44.327 84.381-84.401 1.431-4.53 3.335-12.127 4.231-16.88 1.85-9.817 2.945-35.143 1.519-35.143-.508 0-1.235-2.744-1.615-6.098-1.717-15.177-9.671-35.359-20.128-51.065-18.229-27.383-46.973-46.893-80.116-54.378-8.091-1.827-36.297-2.75-44.461-1.454m40.369 92.74c-23.019 33.939-33.169 48.883-34.392 50.637-.364.52-9.677-5.88-20.696-14.223l-20.034-15.17-2.394 3.256c-1.317 1.79-5.839 8.091-10.049 14.002l-7.656 10.747 8.245 6.441c4.534 3.543 19.719 15.428 33.744 26.412 19.244 15.07 25.78 19.686 26.643 18.811 1.521-1.541 76.212-111.194 76.575-112.417.278-.94-1.219-2.202-18.405-15.519l-8.686-6.731-22.895 33.754M.392 128c0 7.425.157 10.463.35 6.75.192-3.713.192-9.787 0-13.5-.193-3.713-.35-.675-.35 6.75" fill="#1976D2" fill-rule="evenodd"/><path fill-opacity=".244" d="M113 1.018C82.425 5.273 56.749 18.056 36.413 39.149 19.084 57.123 8.07 77.79 2.884 102.066c-3.156 14.771-3.151 37.12.012 51.934 5.513 25.818 17.7 47.701 36.815 66.1 24.43 23.514 53.701 35.301 87.789 35.348 17.039.024 25.616-1.254 40.096-5.973 19.855-6.472 35.139-15.952 50.533-31.346 19.885-19.885 32.507-44.487 35.979-70.129.559-4.125 1.438-8.882 1.954-10.571C257.326 133.291 257.277 118 256 118c-.55 0-1-1.594-1-3.542 0-5.205-2.734-17.729-6.043-27.681-13.982-42.05-51.158-74.85-94.957-83.779-11.858-2.418-31.158-3.35-41-1.98m31.133 101.019c-15.602 23.08-28.8 41.963-29.329 41.963-.529 0-9.249-6.313-19.378-14.029-10.128-7.717-18.98-14.24-19.671-14.498-1.192-.445-20.255 25.423-20.255 27.486 0 .873 66.421 53.051 67.5 53.026 1.023-.024 78.083-114.041 77.602-114.819-.607-.984-27.058-21.181-27.669-21.129-.238.021-13.198 18.921-28.8 42M.36 128c0 5.225.169 7.363.375 4.75.206-2.613.206-6.888 0-9.5S.36 122.775.36 128" fill="#1976D2" fill-rule="evenodd"/><path fill-opacity=".107" d="M105.5 2.597C56.341 11.311 16.644 48.511 4.366 97.368.837 111.41 0 134.336 2.474 149.14c7.774 46.496 40.554 84.846 85.354 99.856 51.122 17.127 109.369-.897 141.703-43.85 16.935-22.497 25.721-48.849 25.721-77.146 0-34.553-12.868-65.68-37.22-90.032-18.745-18.745-42.216-30.956-67.958-35.357C138.495.632 116.626.625 105.5 2.597m38.416 99.383c-15.629 23.09-28.875 41.819-29.436 41.62-.561-.198-9.671-6.913-20.244-14.921l-19.224-14.561-2.38 3.191C65.914 126.315 55 142.175 55 142.931c0 .475 15.295 12.811 33.989 27.414l33.989 26.551 2.352-3.198c1.821-2.476 37.148-54.333 73.742-108.248l2.749-4.051L187.938 70.7c-7.637-5.885-14.272-10.7-14.745-10.7-.474 0-13.648 18.891-29.277 41.98" fill="#1976D2" fill-rule="evenodd"/></svg>