<svg xmlns="http://www.w3.org/2000/svg" width="256" height="256"><path fill-opacity=".016" d="M0 128.004v128.004l128.25-.254 128.25-.254.254-127.75L257.008 0H0v128.004m.485.496c0 70.4.119 99.053.265 63.672.146-35.38.146-92.98 0-128C.604 29.153.485 58.1.485 128.5" fill="#1976D2" fill-rule="evenodd"/><path fill-opacity=".055" d="M49.405 61.74c.113 7.429.392 8.79 1.864 9.073 2.016.389 1.899.895 2.105-9.148.088-4.309-.196-8.055-.631-8.324-.436-.269-.669-.119-.518.335.151.453-.175.824-.725.824s-.888-.337-.75-.75-.139-.75-.614-.75-.804 3.933-.731 8.74m1.105-3.724c.346.559 1.047.758 1.559.441C53.456 57.6 53.198 57 51.441 57c-.857 0-1.276.457-.931 1.016m.043 2.899a1.116 1.116 0 00.362 1.532c.521.322 1.21.159 1.532-.362a1.116 1.116 0 00-.362-1.532 1.116 1.116 0 00-1.532.362M21.525 61.96C20.854 63.045 29.811 77 31.178 77c2.358 0 1.538-3.321-2.31-9.356-4.018-6.304-6.008-7.844-7.343-5.684m54.725 2.359C75.013 66.136 74 68.158 74 68.812c0 .653-.45 1.188-1 1.188s-1 .675-1 1.5-.45 1.5-1 1.5-1 .9-1 2 .575 2 1.278 2C72.712 77 76 73.51 76 71.989c0-.544.45-.989 1-.989s1-.675 1-1.5.45-1.5 1-1.5 1-.638 1-1.417.531-1.593 1.18-1.81c1.516-.505.302-3.775-1.399-3.766-.704.004-2.294 1.494-3.531 3.312M22 63c0 .55.45 1 1 1s1 .675 1 1.5.45 1.5 1 1.5c1.348 0 1.21-1.139-.392-3.25C23.13 61.802 22 61.478 22 63m57 .441c0 .857-.45 1.559-1 1.559s-1 .675-1 1.5-.45 1.5-1 1.5-1 .675-1 1.5-.45 1.5-1 1.5-1 .45-1 1c0 2.134 1.632.763 4.728-3.973 1.83-2.799 2.804-5.198 2.25-5.541-.538-.332-.978.098-.978.955M50.5 65c-.34.55.11 1 1 1s1.34-.45 1-1c-.34-.55-.79-1-1-1-.21 0-.66.45-1 1m.053 2.915a1.116 1.116 0 00.362 1.532c.521.322 1.21.159 1.532-.362a1.116 1.116 0 00-.362-1.532 1.116 1.116 0 00-1.532.362m121.779.883c-2.842 1.011-6.779 3.068-8.75 4.571-3.287 2.508-3.582 2.572-3.582.78 0-2.979-5.153-4.431-9.91-2.792-13.902 4.79-28.581 30.141-22.673 39.157 5.216 7.961 16.252 4.044 26.296-9.332 3.983-5.305 5.428-9.182 3.423-9.182-.475 0-2.117 1.808-3.648 4.017-3.698 5.336-9.884 10.833-14.24 12.653-3.098 1.294-3.711 1.296-4.993.014-4.33-4.33 9.097-27.089 19.073-32.33 2.736-1.437 2.818-1.41 2.5.83-.233 1.649-1.025 2.351-2.748 2.438-2.859.143-5.273 3.049-4.868 5.861.38 2.634 3.451 3.132 5.862.95 1.843-1.668 1.926-1.653 1.926.341 0 1.146.621 2.704 1.38 3.463 2.057 2.057 3.011 11.049 1.619 15.266-.985 2.986-.914 3.977.434 6.035 2.127 3.247 3.147 3.105 4.444-.616l1.074-3.079 6.293 6.579c5.721 5.98 6.661 6.578 10.334 6.578 2.222 0 4.859-.599 5.861-1.331 1.666-1.219 1.332-1.607-3.94-4.583-5.508-3.108-15.499-11.55-15.499-13.095 0-.404 1.847-1.031 4.105-1.392 10.987-1.757 20.943-11.998 21.077-21.68.132-9.607-9.353-14.211-20.85-10.121M26 69c0 .55.45 1 1 1s1 .675 1 1.5.45 1.5 1 1.5 1 .675 1 1.5.45 1.5 1 1.5c1.439 0 1.269-.613-1.25-4.502C27.529 68.07 26 67.051 26 69m144.459 5.367C164.587 77.101 160 82.071 160 85.699c0 2.12.245 2.343 1.461 1.333.804-.667 1.734-2.072 2.068-3.122.875-2.758 2.471-2.347 2.471.635 0 1.4-1.064 3.61-2.365 4.911-1.328 1.328-2.048 2.876-1.642 3.533.438.708 2.008-1.324 3.986-5.16 1.795-3.481 4.784-8.467 6.641-11.079 1.857-2.612 3.265-4.746 3.128-4.74-.136.005-2.516 1.066-5.289 2.357m9.588-.278c.941 1.757.566 2.921-2.36 7.328-1.914 2.881-4.651 7.552-6.084 10.38-2.206 4.354-2.337 5.044-.854 4.504 7.46-2.716 15.584-12.394 15.584-18.565 0-3.227-2.431-5.736-5.559-5.736-1.561 0-1.672.321-.727 2.089M71 75c0 .55.45 1 1 1s1-.45 1-1-.45-1-1-1-1 .45-1 1m-26.266 1.034c-12.621 3.155-21.067 13.099-22.442 26.424-.815 7.898 1.223 14.496 7.447 24.104 3.045 4.7 5.916 9.984 6.381 11.742l.845 3.196-.392-3.581c-.233-2.122-2.472-6.766-5.5-11.404-8.78-13.45-10.047-23.353-4.489-35.101C31.058 81.956 39.625 77 51.5 77c17.2 0 28.015 11.242 27.9 29-.048 7.434-2.007 12.585-8.316 21.876-2.254 3.32-4.637 8.369-5.296 11.22-1.074 4.655-1.61 5.372-5.242 7.022-7.128 3.238-18.839 1.745-22.296-2.842-.687-.912-1.25-1.177-1.25-.59 0 .588.68 1.633 1.511 2.323 1.338 1.111 1.31 1.411-.25 2.623-1.641 1.275-1.647 1.457-.088 2.672 1.564 1.219 1.564 1.379 0 2.464-1.556 1.08-1.548 1.261.106 2.578 1.637 1.304 1.646 1.469.114 2.057-1.547.593-1.543.773.044 2.528.941 1.039 2.894 2.186 4.342 2.55 1.447.363 3.24 1.528 3.983 2.59.743 1.061 2.113 1.9 3.045 1.866 1.229-.046 1.077-.311-.557-.968-1.237-.498-2.25-1.385-2.25-1.972 0-.588-2.089-1.963-4.642-3.058-5.558-2.382-5.426-3.435.18-1.438 5.006 1.783 12.844 1.81 17.746.061 3.027-1.08 3.57-1.091 2.709-.054-.591.713-2.166 1.57-3.499 1.904-2.548.64-7.973 5.443-7.115 6.3.275.275 1.594-.594 2.931-1.931 1.337-1.337 3.824-3.008 5.527-3.714 4.252-1.761 5.912-3.842 3.732-4.679-1.537-.59-1.535-.768.024-2.491 1.532-1.693 1.538-1.909.069-2.473-1.47-.564-1.472-.757-.025-2.203 1.402-1.403 1.412-1.712.085-2.682-1.313-.961-1.265-1.385.39-3.428 1.038-1.283 1.888-3.552 1.888-5.043 0-1.602 2.417-6.48 5.909-11.926 8.762-13.665 10.154-23.152 5.115-34.863-5.2-12.089-20.347-19.481-33.29-16.245m-.234 2.901C32.763 81.793 25.044 92.331 25.044 105.5c0 8.06 1.397 11.743 8.256 21.761 2.534 3.702 4.911 8.42 5.281 10.485.37 2.065 1.345 4.525 2.167 5.466 1.72 1.972 7.773 4.202 9.128 3.364 2.006-1.239-.89-7.653-6.375-14.119-6.876-8.105-10.384-15.299-10.74-22.023L32.5 105.5l4.23-.307c2.449-.177 5.674.38 7.662 1.323l3.433 1.629 4.293-4.657c4.481-4.862 9.223-7.778 14.493-8.915 2.985-.644 3.137-.516 3.739 3.128 2.155 13.041-1.773 24.034-13.497 37.774-3.496 4.096-4.853 6.538-4.853 8.731 0 2.898.156 3.014 3.25 2.407 5.13-1.004 7.92-3.685 9.238-8.875.656-2.585 3.328-7.911 5.938-11.835 5.658-8.51 7.574-13.529 7.574-19.847 0-13.954-8.647-24.855-21.875-27.576-2.359-.485-3.169-.361-2.691.413.376.609 1.915 1.107 3.419 1.107 4.979 0 13.13 5.911 16.549 12 2.75 4.899 3.083 6.375 3.048 13.5-.042 8.348-1.619 12.905-6.92 20-3.439 4.602-6.53 11.153-6.53 13.838 0 2.948-1.364 4.144-6.25 5.477-3.452.942-3.75.86-3.75-1.038 0-1.134 1.954-4.36 4.342-7.169 10.266-12.078 14.809-22.251 14.54-32.568-.197-7.551-1.159-10.506-3.531-10.846-3.447-.492-11.493 3.867-16.415 8.895-4.32 4.413-4.7 4.591-7.116 3.325-3.324-1.742-8.839-2.321-11.77-1.237-2.16.799-2.285 1.261-1.748 6.459.772 7.484 4.354 14.449 11.655 22.662 4.439 4.993 6.043 7.567 6.043 9.698 0 2.829-.079 2.873-3.25 1.807-4.597-1.546-5.747-2.676-5.773-5.675-.023-2.502-1.869-6.17-8.377-16.648-5.732-9.227-7.053-17.859-4.072-26.608 2.824-8.287 10.696-15.03 18.817-16.118 1.419-.19 2.896-.662 3.284-1.05.846-.846-1.055-.761-5.129.231m-3 3.948c-5.299 2.47-10.288 7.729-8.771 9.246.82.82 2.163.235 5.08-2.214 2.181-1.831 5.478-3.838 7.328-4.461 3.43-1.155 4.574-3.721 1.863-4.181-.825-.141-3.3.584-5.5 1.61m-.068 1.529c-5.222 2.44-9.241 6.112-8.024 7.329.401.401 1.486-.184 2.41-1.299 2.499-3.014 4.751-4.53 8.797-5.921 1.999-.687 3.21-1.511 2.691-1.832-.518-.32-3.162.455-5.874 1.723M3 85.656c0 1.85 4.574 4.446 10.421 5.914 1.429.358 2.833 1.032 3.12 1.497.777 1.257 3.459-.061 3.459-1.699 0-1.15-2.284-2.622-6-3.868-.275-.092-1.757-.689-3.294-1.326C4.912 83.772 3 83.644 3 85.656m91.663-.164c-1.561.814-4.645 2.022-6.855 2.684-2.209.661-4.26 1.838-4.558 2.614-.652 1.699 1.76 3.422 3.216 2.298.569-.438 3.172-1.411 5.784-2.161 2.612-.75 4.806-1.715 4.875-2.145.069-.43.181-1.232.25-1.782a1.04 1.04 0 011.125-.9c.55.055.855.618.679 1.25-.239.854-.017.851.862-.013 1.32-1.296.491-3.34-1.35-3.331-.655.004-2.468.672-4.028 1.486M4 85.816c0 1.022 4.109 2.408 4.873 1.644.636-.636.002-1.096-2.623-1.903-1.241-.382-2.25-.265-2.25.259m90 1.302c-1.625.957-7.086 3.162-8.167 3.298-.366.046-1.041.485-1.5.975-.971 1.038 3.258.14 7.373-1.565 1.537-.637 3.132-1.196 3.544-1.242.771-.086 1.178-1.516.583-2.05-.183-.165-1.008.098-1.833.584m-83.451.666c-1.06 1.06-.536 2.425.743 1.934.71-.272 2.146.129 3.191.893C16.765 92.28 19 92.419 19 90.893c0-.609-.675-.848-1.5-.531-.825.316-1.504.252-1.508-.143-.011-.989-4.763-3.115-5.443-2.435m49.392 11.037c-11.952 7.584-16.191 19.425-11.812 32.996.589 1.824 1.242 3.145 1.452 2.935.21-.21 1.035-3.795 1.833-7.967 1.375-7.185 4.547-14.857 7.974-19.285 2.393-3.091 1.964.197-.471 3.617-3.05 4.283-5.876 13.051-6.497 20.16l-.545 6.223 4.969-5.336c2.733-2.935 6.461-8.11 8.284-11.5 3.04-5.654 3.316-6.909 3.343-15.164.027-8.249-.138-9.024-1.971-9.286-1.1-.157-4.052 1.016-6.559 2.607m.051 1.429c-8.165 4.896-11.392 10.732-11.845 21.42-.237 5.617.007 8.33.75 8.33.607 0 1.103-1.105 1.103-2.455C50 121.483 58.079 105 61.051 105c1.655 0 1.038 2.481-2.023 8.132-3.25 6.001-6.342 16.652-5.844 20.128.265 1.846 1.102 1.158 5.21-4.28 6.991-9.257 8.879-14.02 9.408-23.73.528-9.697.284-9.853-7.81-5m-25.982 9.5c.005 2.063 1.134 6.165 2.507 9.116 2.555 5.488 8.366 13.584 9.172 12.778 1.08-1.08-1.925-12.403-4.208-15.851-1.38-2.086-2.063-3.793-1.518-3.793.545 0 1.773 1.194 2.729 2.653l1.739 2.654 1.239-2.904c.682-1.596 1.26-3.368 1.285-3.937.077-1.765-5.583-4.466-9.359-4.466-3.49 0-3.596.11-3.586 3.75m.99.357c0 3.416 5.09 14.893 7.488 16.883 2.712 2.25 1.766-3.963-1.506-9.9-1.64-2.975-2.982-5.563-2.982-5.75 0-1.112 3.886-.079 4.362 1.16.823 2.145 2.313 1.851 2.949-.581.432-1.651-.158-2.375-2.851-3.5-5.59-2.336-7.46-1.913-7.46 1.688m-22.5 1.029c-2.869.84-6.992 1.512-10.75 1.752-1.635.105-2.457 3.072-1.2 4.329.303.302 2.215.143 4.25-.353 2.035-.497 5.5-1.147 7.7-1.445 4.935-.669 6.434-1.947 4.457-3.798-1.049-.982-2.297-1.118-4.457-.485m73.629.209c-.877 1.057-.851 1.631.109 2.396 1.041.83 8.27 2.445 12.262 2.738.55.041 1.531.407 2.181.814.649.407 1.463.282 1.809-.277.345-.559-.186-1.085-1.181-1.168-5.83-.491-11.309-1.925-11.309-2.961 0-.575.983-.753 2.25-.407 1.63.446 1.837.36.75-.311-3.062-1.892-5.72-2.211-6.871-.824m.871 1.214c0 .857.457 1.276 1.016.931.559-.346.758-1.047.441-1.559-.857-1.387-1.457-1.129-1.457.628m-76 .627c0 .486 1.108.734 2.462.553 3.709-.497 4.183-1.624.641-1.523-1.707.049-3.103.485-3.103.97m84.517-.159c.647 1.047 7.483 1.753 7.483.772 0-.439-.787-.856-1.75-.927-.963-.07-2.751-.233-3.974-.362-1.223-.129-2.015.104-1.759.517M8 114c0 .55.45 1 1 1s1-.45 1-1-.45-1-1-1-1 .45-1 1m-7 1c0 .55.45 1 1 1s1-.45 1-1-.45-1-1-1-1 .45-1 1m3.51.016c.346.559 1.047.758 1.559.441C7.456 114.6 7.198 114 5.441 114c-.857 0-1.276.457-.931 1.016m14.24 19.958c-6.008 6.033-6.725 7.438-4.276 8.378 1.957.75 13.878-10.994 13.132-12.937-.932-2.429-2.913-1.409-8.856 4.559m56.689-4.875C74.679 131.329 85.735 143 87.66 143c3.062 0 1.981-2.422-3.563-7.982-6.095-6.115-7.445-6.882-8.658-4.919m-50.886.816a1.116 1.116 0 00.362 1.532c.521.322 1.21.159 1.532-.362a1.116 1.116 0 00-.362-1.532 1.116 1.116 0 00-1.532.362M76.5 131c-.34.55.11 1 1 1s1.34-.45 1-1c-.34-.55-.79-1-1-1-.21 0-.66.45-1 1m-58.356 6.564c-2.396 2.44-3.841 4.436-3.211 4.436 1.155 0 9.067-7.348 9.067-8.422 0-1.375-1.785-.16-5.856 3.986M79 133.571c0 1.063 3.091 3.672 3.667 3.096.314-.315-.125-1.268-.977-2.119-1.587-1.588-2.69-1.988-2.69-.977m5 5c0 1.059 2.846 3.429 4.117 3.429.718 0 .336-.861-.887-2-2.16-2.012-3.23-2.486-3.23-1.429m-44.901 9.342c-1.063.676-.407 1.399 2.71 2.99 5.096 2.599 13.672 2.789 18.657.412 3.509-1.674 5.057-3.837 1.87-2.614-1.037.398-1.418.241-1.011-.418.391-.632-1.387-.46-4.415.428-4.849 1.421-8.803 1.11-15.031-1.182-.759-.28-2.01-.107-2.78.384m4.401 2.044c4.637 2.307 10.713 2.542 15 .579 3.68-1.685 2.329-1.894-2.886-.446-3.683 1.023-5.944.77-14.235-1.588-1.034-.294-.079.361 2.121 1.455m-1.932 3.153c.462.748-.084.892-1.693.445-2.309-.64-2.321-.615-.406.914 4.62 3.689 15.341 4.397 21.828 1.442 2.897-1.32 3.817-3.276 1.039-2.21-1.117.429-1.427.255-.943-.528.536-.868.049-.911-1.901-.17-1.442.548-5.039.997-7.992.997-2.953 0-6.55-.449-7.992-.997-1.881-.715-2.429-.685-1.94.107m2.742 2.244c1.204.47 4.44.854 7.19.854s5.986-.384 7.19-.854c1.455-.567-.961-.854-7.19-.854s-8.645.287-7.19.854m13.69 2.8c-1.375.564-5.425.815-9 .557-3.812-.275-5.673-.135-4.5.339 3.169 1.282 11.717.989 15-.514 3.474-1.59 2.22-1.91-1.5-.382m-8.75 5.096c.229.688 1.242 1.25 2.25 1.25s2.021-.562 2.25-1.25c.264-.792-.561-1.25-2.25-1.25s-2.514.458-2.25 1.25" fill="#1976D2" fill-rule="evenodd"/><path fill-opacity=".237" d="M170 70.079c-2.475 1.119-5.937 3.422-7.693 5.119-2.775 2.68-3.12 2.803-2.632.938 1.324-5.063-5.498-6.797-12.562-3.194-8.62 4.398-19.405 20.159-20.674 30.214-.419 3.32-.067 5.11 1.492 7.594 1.757 2.799 2.604 3.25 6.104 3.25 4.802 0 8.662-1.828 13.954-6.609 4.349-3.929 10.613-13.122 9.619-14.117-.358-.357-3.521 2.497-7.031 6.342-6.487 7.108-13.065 11.178-16.152 9.993-5.921-2.272 7.438-27.088 17.754-32.982 4.243-2.424 5.374-1.935 3.753 1.623-.766 1.68-1.729 2.354-2.92 2.043-1.092-.286-2.402.426-3.395 1.843-3.666 5.234-.183 7.711 4.561 3.244 2.789-2.626 3-2.685 2.385-.668-.872 2.862.98 6.288 3.4 6.288 2.036 0 6.037-4.397 6.037-6.635 0-2.206-1.587-1.567-2.818 1.135-1.272 2.793-4.182 3.397-4.182.868 0-4.795 10.816-14.33 16.289-14.359 1.615-.008 1.582.209-.345 2.241C172.259 77.081 164 91.027 164 92.729c0 1.637-1.693 1.653-2.292.021-.361-.986-.732-.992-1.756-.027-1.002.944-1.041 1.787-.168 3.703.84 1.842.84 3.862.002 7.859-.621 2.959-.841 6.13-.489 7.047 1.029 2.682 3.418 1.925 4.597-1.457l1.089-3.125 4.496 5.461c5.704 6.928 9.926 9.311 14.861 8.385 2.013-.378 3.66-1.073 3.66-1.546 0-.472-2.548-2.297-5.663-4.055-3.114-1.758-7.898-5.491-10.631-8.297l-4.968-5.1 5.133-1.156c11.349-2.557 19.993-10.974 20.894-20.347.454-4.724.26-5.27-3.04-8.57-3.238-3.238-4.002-3.523-9.375-3.503-3.701.014-7.503.769-10.35 2.057m8 2.001c0 .441.45 1.08 1 1.42 1.753 1.083 1.078 3.873-2.058 8.5-3.931 5.801-8.212 14.063-7.602 14.673.261.261 1.86-.242 3.554-1.118 10.403-5.38 17.274-17.485 12.356-21.769-1.957-1.705-7.25-2.951-7.25-1.706" fill="#1976D2" fill-rule="evenodd"/><path fill-opacity=".116" d="M174 68.935c-5.163 1.576-10.895 5.117-13.337 8.237l-2.526 3.227.549-4.094c.526-3.921.419-4.123-2.519-4.768-10.529-2.313-27.693 16.699-28.969 32.087-.39 4.699-.128 5.822 1.848 7.925 1.307 1.392 3.416 2.442 4.878 2.429 6.664-.057 16.881-7.949 21.938-16.946 3.13-5.57 1.33-5.057-3.105.884-5.778 7.739-15.546 14.069-18.701 12.118-2.049-1.266-.776-9.073 2.57-15.759C140.077 87.377 151.792 75 154.87 75c2.37 0 2.66 1.141 1.053 4.143-.663 1.24-1.671 1.784-2.626 1.417-2.128-.816-4.297 1.204-4.297 4.003 0 3.81 1.879 3.82 5.351.03l3.273-3.574-.062 4.712c-.05 3.789.295 4.783 1.762 5.078 2.587.519 5.69-2.649 5.597-5.714-.047-1.534-.304-1.982-.63-1.095-.885 2.406-3.483 5-4.425 4.417-1.862-1.15-.713-5.522 2.377-9.041 3.61-4.111 11.755-8.351 16.073-8.366 2.999-.011 6.709 1.577 7.919 3.39 2.541 3.806-1.737 13.637-7.926 18.213-3.801 2.811-9.386 5.643-9.972 5.058-.684-.685 3.25-8.212 7.829-14.981 2.653-3.921 3.731-6.44 3.315-7.75-1.508-4.752-6.304.115-12.621 12.808-1.848 3.714-3.477 6.944-3.62 7.179-.144.235-.963-.44-1.82-1.5-1.451-1.792-1.521-1.589-.997 2.909.309 2.66.062 6.824-.55 9.254-.856 3.401-.826 4.761.13 5.913 1.925 2.321 2.849 1.801 3.563-2.003.796-4.241 1.491-4.366 3.677-.665.921 1.559 3.708 4.709 6.194 7 3.859 3.558 5.153 4.165 8.874 4.165 2.396 0 4.647-.291 5.002-.646.356-.356-2.08-2.26-5.412-4.231-7.65-4.526-15.809-12.934-13.79-14.213.764-.484 2.289-.891 3.389-.904 6.93-.087 18.426-9.477 20.428-16.685 1.398-5.036 1.354-5.874-.494-9.449-2.527-4.887-10.346-7.101-17.434-4.937" fill="#1976D2" fill-rule="evenodd"/></svg>